# xmcd
#
# Track frame offsets:
# 150
# 20056
# 40811
# 63070
# 87349
# 103228
#
# Disc length: 1716 seconds
#
# Revision: 0
# Processed by: cddbd v1.5.2PL0 Copyright (c) Steve Scherf et al.
# Submitted via: cdrdao 1.2.3rc2
#
DISCID=4706b206
DTITLE=Antimatter - Fear Of A Unique Identity (Bonus CD)
DYEAR=2012
DGENRE=country
TTITLE0=The Parade (Remix)
TTITLE1=Fear Of A Unique Identity (Acoustic Mix)
TTITLE2=Here Come The Men (Violin Mix)
TTITLE3=Firewalking (Remix)
TTITLE4=A Place In The Sun (Demo)
TTITLE5=Monochrome (Alternate Demo)
EXTD=Prophecy Productions 2012
EXTD=
EXTD=Music and lyrics: Mick Moss
EXTD=Members: Mick Moss (vocals, lead guitar, acoustic and electric guitars, bass guitar, synthesizers, piano, programming, samples, producer, mixer)
EXTD=Guest appearances: Colin Fromont (drums), Vic Anselmo (vocals), David Hall (violin)
EXTD=
EXTD=Masterig Engineer: Maor Appelbaum
EXTT0=
EXTT1=
EXTT2=
EXTT3=
EXTT4=
EXTT5=
PLAYORDER=
